<svg width="512" height="512" viewBox="0 0 512 512" xmlns="http://www.w3.org/2000/svg">
  <rect x="0" y="0" width="512" height="512" rx="100" ry="100" fill="#a87d95"/>
  <style>
    @media (prefers-color-scheme: light) {
      .background { fill: black; }
      .foreground { fill: white; }
    }
    @media (prefers-color-scheme: dark) {
      .background { fill: white; }
      .foreground { fill: black; }
    }
  </style>
  <g fill="#3e1e32" stroke="none">
    <path d="M246,390 C230,390 220,410 210,420 L302,420 C292,410 282,390 266,390 L266,350 C275,345 280,335 280,325 C280,315 275,305 266,300 L266,170 L246,170 L246,300 C237,305 232,315 232,325 C232,335 237,345 246,350 Z" />
    
    <path d="M256,150 C210,150 150,175 130,190 L130,205 C150,195 200,175 246,170 L246,170 L266,170 C312,175 362,195 382,205 L382,190 C362,175 302,150 256,150 Z" />
    
    <path d="M130,205 L90,340 L170,340 L130,205 Z M90,345 C90,345 90,365 130,365 C170,365 170,345 170,345 L90,345 Z" />
    
    <path d="M382,205 L342,340 L422,340 L382,205 Z M342,345 C342,345 342,365 382,365 C422,365 422,345 422,345 L342,345 Z" />
    
    <circle cx="256" cy="140" r="10" />
  </g>
  <defs>
    <clipPath id="clip0_7960_43945">
      <rect width="180" height="180" fill="white" />
    </clipPath>
  </defs>
</svg>